<?xml-stylesheet type="text/css" href="../css/stylesheet.css" ?>
<svg xmlns="http://www.w3.org/2000/svg" width="620" height="197" viewBox="0 0 620 197">
  <g fill="none" fill-rule="evenodd">
    <g transform="translate(170 123)">
      <rect width="14" height="28" x="23" y="46" fill="#404040" rx="7"/>
      <path fill="#EBDC99" d="M34,40.8320874 C37.5318096,42.3752006 40,45.8993619 40,50 L40,58 C40,59.1045695 39.1045695,60 38,60 L22,60 C20.8954305,60 20,59.1045695 20,58 L20,50 C20,45.8993619 22.4681904,42.3752006 26,40.8320874 L26,0 L34,0 L34,40.8320874 Z"/>
      <g transform="translate(240)">
        <rect width="14" height="28" x="3" y="46" fill="#404040" rx="7"/>
        <path fill="#EBDC99" d="M14,40.8320874 C17.5318096,42.3752006 20,45.8993619 20,50 L20,58 C20,59.1045695 19.1045695,60 18,60 L2,60 C0.8954305,60 1.3527075e-16,59.1045695 0,58 L0,50 C-5.02183329e-16,45.8993619 2.46819043,42.3752006 6,40.8320874 L6,0 L14,0 L14,40.8320874 Z"/>
      </g>
    </g>
    <g fill="#F11D3D" transform="translate(0 107)">
      <path d="M615 0C617.761424 0 620 2.23857625 620 5 620 7.76142375 617.761424 10 615 10L340 30 340 0 615 0zM5 0L280 0 280 30 5 10C2.23857625 10 0 7.76142375 0 5 0 2.23857625 2.23857625 0 5 0z"/>
    </g>
    <g fill="#F11D3D" transform="translate(236)">
      <path d="M142.619355 55.7270992C142.654734 55.726239 142.69022 55.7258065 142.725806 55.7258065 145.092741 55.7258065 147.011521 57.6394281 147.011521 60 147.011521 62.3605719 145.092741 64.2741935 142.725806 64.2741935 142.69022 64.2741935 142.654734 64.273761 142.619355 64.2729008L142.619355 64.2741935 94.6193548 65.983871 94.6193548 54.016129 142.619355 55.7258065 142.619355 55.7270992zM5.38064516 64.2729008C5.34526593 64.273761 5.30978039 64.2741935 5.27419355 64.2741935 2.90725891 64.2741935.988479263 62.3605719.988479263 60 .988479263 57.6394281 2.90725891 55.7258065 5.27419355 55.7258065 5.30978039 55.7258065 5.34526593 55.726239 5.38064516 55.7270992L5.38064516 55.7258065 53.3806452 54.016129 53.3806452 65.983871 5.38064516 64.2741935 5.38064516 64.2729008zM69 5C69 2.23857625 71.2385763 0 74 0 76.7614237 0 79 2.23857625 79 5L81 31.2 67 31.2 69 5z"/>
    </g>
    <g transform="translate(270 30)">
      <path fill="#E1F2FF" d="M10,30 C10,13.4314575 23.4314575,0 40,0 C56.5685425,0 70,13.4314575 70,30 L70,75 L10,75 L10,30 Z"/>
      <path fill="#F11D3D" d="M22.4309426,40 L57.5690574,40 C69.7193219,40 79.5690574,49.8497355 79.5690574,62 C79.5690574,62.7673638 79.5289088,63.5342021 79.4487761,64.2973705 L74.6971994,109.550482 C72.8798565,126.85851 58.2862656,140 40.8830888,140 L39.1169112,140 C21.7137344,140 7.1201435,126.85851 5.30280057,109.550482 L0.551223898,64.2973705 C-0.717578772,52.2135355 8.04973716,41.389084 20.1335721,40.1202813 C20.8967405,40.0401487 21.6635788,40 22.4309426,40 Z"/>
    </g>
    <g transform="translate(250 60)">
      <circle cx="60" cy="60" r="60" fill="#C9F1DF" fill-opacity=".9"/>
      <path class="propeller" fill="#C9F1DF" d="M79.0763801,117.22914 C73.3719481,119.029233 67.2993414,120 61,120 C54.0334306,120 47.3441712,118.812695 41.1235346,116.629396 L60,60 L79.0763801,117.22914 Z M41.1235346,3.37060373 C47.3441712,1.18730549 54.0334306,0 61,0 C67.2993414,0 73.3719481,0.970766603 79.0763801,2.77085976 L60,60 L41.1235346,3.37060373 Z" transform="rotate(135 60.1 60)" style="mix-blend-mode:multiply"/>
      <circle cx="60" cy="60" r="15" fill="#EBDC99"/>
    </g>
  </g>
</svg>
