<svg xmlns="http://www.w3.org/2000/svg" width="720" height="240" viewBox="0 0 720 240">
  <g fill="none" fill-rule="evenodd">
    <rect width="720" height="240" fill="#CCF4FF"/>
    <g fill="#FFF" transform="translate(-14 15)">
      <circle cx="9" cy="9" r="9"/>
      <circle cx="129" cy="9" r="9"/>
      <rect width="120" height="18" x="9"/>
    </g>
    <g fill="#FFF" transform="translate(25 88)">
      <g transform="translate(0 36)">
        <circle cx="9" cy="9" r="9"/>
        <circle cx="175.851" cy="9" r="9"/>
        <rect width="166.851" height="18" x="9"/>
      </g>
      <g transform="translate(112.714)">
        <circle cx="9" cy="9" r="9"/>
        <circle cx="141.286" cy="9" r="9"/>
        <rect width="132.286" height="18" x="9"/>
      </g>
      <path d="M166.817143,36 L130.748571,36 C135.719134,36 139.748571,31.9705627 139.748571,27 C139.748571,22.0294373 135.719134,18 130.748571,18 L166.817143,18 C161.84658,18 157.817143,22.0294373 157.817143,27 C157.817143,31.9705627 161.84658,36 166.817143,36 Z"/>
    </g>
    <g fill="#FFF" transform="translate(511 34)">
      <g transform="translate(0 36)">
        <circle cx="9" cy="9" r="9"/>
        <circle cx="90.21" cy="9" r="9"/>
        <rect width="81.21" height="18" x="9"/>
      </g>
      <g transform="translate(27.057)">
        <circle cx="9" cy="9" r="9"/>
        <rect width="190.943" height="18" x="9"/>
      </g>
      <path d="M81.1719745,36 L45.0955414,36 C50.0661041,36 54.0955414,31.9705627 54.0955414,27 C54.0955414,22.0294373 50.0661041,18 45.0955414,18 L81.1719745,18 C76.2014118,18 72.1719745,22.0294373 72.1719745,27 C72.1719745,31.9705627 76.2014118,36 81.1719745,36 Z"/>
    </g>
    <g transform="translate(-79 112)">
      <path fill="#7BB084" d="M269.309246,70.6972581 L368.374554,114.946723 L49,114.946723 L197.763854,66.8519076 C221.268672,59.2528849 246.754332,60.6226627 269.309246,70.6972581 Z"/>
      <path fill="#96D4A0" d="M134.501046,11.8950489 L254,114.514784 L0,114.514784 L65.3067665,20.699556 C80.1368388,-0.604309911 109.429183,-5.85235663 130.733049,8.97771557 C132.03757,9.88582021 133.295185,10.8595158 134.501046,11.8950489 Z"/>
      <path fill="#7BB084" d="M817.291455,69.0865467 L880.101285,115.276836 L643,115.276836 L716.604456,66.5859959 C747.373023,46.2319651 787.571176,47.230282 817.291455,69.0865467 Z"/>
      <path fill="#96D4A0" d="M685.554676,23.1363309 L810.374554,114.928751 L491,114.928751 L631.778665,21.8008095 C648.211877,10.9299067 669.681346,11.4630986 685.554676,23.1363309 Z"/>
    </g>
    <rect width="720" height="14" y="226" fill="#64646D"/>
  </g>
</svg>
