<?xml-stylesheet type="text/css" href="../css/stylesheet.css" ?>
<svg xmlns="http://www.w3.org/2000/svg" width="720" height="240" viewBox="0 0 720 240">
  <g fill="none" fill-rule="evenodd">
    <rect width="720" height="240" fill="#CCF4FF"/>
    <g class="clouds"  fill="#FFF" transform="translate(-723 -5)">
      <path d="M260,0 L380,0 C384.970563,0 389,4.02943725 389,9 C389,13.9705627 384.970563,18 380,18 L260,18 C255.029437,18 251,13.9705627 251,9 C251,4.02943725 255.029437,0 260,0 L260,0 Z M186.817143,129 L195.851429,129 C200.821991,129 204.851429,133.029437 204.851429,138 C204.851429,142.970563 200.821991,147 195.851429,147 L29,147 C24.0294373,147 20,142.970563 20,138 C20,133.029437 24.0294373,129 29,129 L150.748571,129 C155.719134,129 159.748571,124.970563 159.748571,120 C159.748571,115.029437 155.719134,111 150.748571,111 L141.714286,111 C136.743723,111 132.714286,106.970563 132.714286,102 C132.714286,97.0294373 136.743723,93 141.714286,93 L274,93 C278.970563,93 283,97.0294373 283,102 C283,106.970563 278.970563,111 274,111 L186.817143,111 C181.84658,111 177.817143,115.029437 177.817143,120 C177.817143,124.970563 181.84658,129 186.817143,129 Z M587.171975,75 L596.210191,75 C601.180754,75 605.210191,79.0294373 605.210191,84 C605.210191,88.9705627 601.180754,93 596.210191,93 L515,93 C510.029437,93 506,88.9705627 506,84 C506,79.0294373 510.029437,75 515,75 L551.095541,75 C556.066104,75 560.095541,70.9705627 560.095541,66 C560.095541,61.0294373 556.066104,57 551.095541,57 L542.057325,57 C537.086762,57 533.057325,52.9705627 533.057325,48 C533.057325,43.0294373 537.086762,39 542.057325,39 L733,39 C737.970563,39 742,43.0294373 742,48 C742,52.9705627 737.970563,57 733,57 L587.171975,57 C582.201412,57 578.171975,61.0294373 578.171975,66 C578.171975,70.9705627 582.201412,75 587.171975,75 Z M0,57 L0,39 L10,39 C14.9705627,39 19,43.0294373 19,48 C19,52.9705627 14.9705627,57 10,57 L0,57 Z"/>
      <g transform="translate(743)">
        <g transform="translate(231)">
          <circle cx="9" cy="9" r="9"/>
          <circle cx="129" cy="9" r="9"/>
          <rect width="120" height="18" x="9"/>
        </g>
        <path d="M166.817143,36 L175.851429,36 C180.821991,36 184.851429,40.0294373 184.851429,45 C184.851429,49.9705627 180.821991,54 175.851429,54 L9,54 C4.02943725,54 0,49.9705627 0,45 C0,40.0294373 4.02943725,36 9,36 L130.748571,36 C135.719134,36 139.748571,31.9705627 139.748571,27 C139.748571,22.0294373 135.719134,18 130.748571,18 L121.714286,18 C116.743723,18 112.714286,13.9705627 112.714286,9 C112.714286,4.02943725 116.743723,0 121.714286,0 L254,0 C258.970563,0 263,4.02943725 263,9 C263,13.9705627 258.970563,18 254,18 L166.817143,18 C161.84658,18 157.817143,22.0294373 157.817143,27 C157.817143,31.9705627 161.84658,36 166.817143,36 Z" transform="translate(0 93)"/>
        <path d="M81.1719745,36 L90.2101911,36 C95.1807538,36 99.2101911,40.0294373 99.2101911,45 C99.2101911,49.9705627 95.1807538,54 90.2101911,54 L9,54 C4.02943725,54 0,49.9705627 0,45 C0,40.0294373 4.02943725,36 9,36 L45.0955414,36 C50.0661041,36 54.0955414,31.9705627 54.0955414,27 C54.0955414,22.0294373 50.0661041,18 45.0955414,18 L36.0573248,18 C31.0867621,18 27.0573248,13.9705627 27.0573248,9 C27.0573248,4.02943725 31.0867621,0 36.0573248,0 L227,0 C231.970563,0 236,4.02943725 236,9 C236,13.9705627 231.970563,18 227,18 L81.1719745,18 C76.2014118,18 72.1719745,22.0294373 72.1719745,27 C72.1719745,31.9705627 76.2014118,36 81.1719745,36 Z" transform="translate(486 39)"/>
      </g>
    </g>
    <g transform="translate(-79 112)">
      <path fill="#7BB084" d="M269.309246,70.6972581 L368.374554,114.946723 L49,114.946723 L197.763854,66.8519076 C221.268672,59.2528849 246.754332,60.6226627 269.309246,70.6972581 Z"/>
      <path fill="#96D4A0" d="M134.501046,11.8950489 L254,114.514784 L0,114.514784 L65.3067665,20.699556 C80.1368388,-0.604309911 109.429183,-5.85235663 130.733049,8.97771557 C132.03757,9.88582021 133.295185,10.8595158 134.501046,11.8950489 Z"/>
      <path fill="#7BB084" d="M817.291455,69.0865467 L880.101285,115.276836 L643,115.276836 L716.604456,66.5859959 C747.373023,46.2319651 787.571176,47.230282 817.291455,69.0865467 Z"/>
      <path fill="#96D4A0" d="M685.554676,23.1363309 L810.374554,114.928751 L491,114.928751 L631.778665,21.8008095 C648.211877,10.9299067 669.681346,11.4630986 685.554676,23.1363309 Z"/>
    </g>
    <rect width="720" height="14" y="226" fill="#64646D"/>
  </g>
</svg>
